<?xml version="1.0" encoding="utf-8"?>
<!-- Generator: Adobe Illustrator 28.2.0, SVG Export Plug-In . SVG Version: 6.00 Build 0)  -->
<svg version="1.1" id="Capa_1" xmlns="http://www.w3.org/2000/svg" xmlns:xlink="http://www.w3.org/1999/xlink" x="0px" y="0px"
	 viewBox="0 0 595.28 841.89" style="enable-background:new 0 0 595.28 841.89;" xml:space="preserve">
<style type="text/css">
	.st0{fill:#FFE910;}
</style>
<g>
	<path d="M278.9,648.55c-22.03-0.91-43.58-6.74-63.06-17.08c-11.4-6.05-22.73-12.02-34.15-17.84
		c-24.56-12.51-43.76-31.35-58.72-53.65c-16.74-24.95-33.21-50.66-45.18-78.06c-10.41-23.85-15.35-50.32-20.88-76.02
		c-3.99-18.54-8.94-38.27-6.42-56.5c4.52-32.63,5.7-65.99,18.38-97.53c11.48-28.56,28.74-50.32,54.93-66.55
		c24.01-14.88,48.76-25.34,77.11-28.33c18.36-1.93,36.27-7.81,54.58-10.62c33.64-5.15,64.24,3.91,92.89,21.52
		c16.48,10.13,34.86,17.66,49.89,29.51c16,12.62,29.28,28.77,43.32,43.79c5.56,5.95,9.49,13.41,14.97,19.44
		c29.21,32.16,47.11,69.04,49.12,113.08c0.3,6.64,2.84,13.33,5.13,19.71c13.95,38.8,13.71,78.11-0.91,115.95
		c-11.91,30.82-27.41,60.39-43.13,89.53c-9.83,18.23-28.34,27.27-47.2,34.63c-7.86,3.07-15.56,6.53-23.34,9.82
		C376.01,651.09,317.07,650.12,278.9,648.55z M463.15,490.79c-2.05-20.54-3.32-43.5-6.88-66.09c-3.62-22.97-7.58-46.23-14.97-68.16
		c-6.22-18.44-15.86-36.37-27.16-52.28c-10.61-14.94-24.94-27.39-38.41-40.1c-16.59-15.65-32.33-32.8-55.2-39.76
		c-6.94-2.11-14.61-2.46-21-5.56c-10.05-4.87-18.94-12.12-28.96-17.05c-21.68-10.66-44.18-15.46-67.5-4.93
		c-9.81,4.43-19.52,9.12-29.03,14.16c-18.66,9.89-38.58,18.16-55.41,30.57c-42.18,31.1-58.37,75.22-53.31,126.16
		c5.82,58.53,19.07,114.72,54.16,164.47c23.59,33.44,49.06,62.77,86.79,80.81c29.63,14.17,59.74,27.28,92.6,27.32
		c36.96,0.05,72.95-7.38,105.05-28.07c24.94-16.07,46.06-35.83,53.86-64.95C462.39,530.12,461.4,511.4,463.15,490.79z
		 M494.24,385.97c-3.26-19.09-6.63-38.85-10.5-61.58c-9.08,7.81-14.66,13.05-20.75,17.6c-1.98,1.48-5.32,1.12-8.03,1.61
		c-0.01-3.09-1.35-7.55,0.19-9.04c6.76-6.55,14.35-12.25,24.24-20.4c-18.62-25.41-38.64-52.73-57.04-77.84
		c-7.31,5.59-12.92,10.33-19.02,14.32c-2.37,1.55-5.85,1.39-8.83,2c0.13-3.15-1.02-7.46,0.61-9.24c5.56-6.09,12.1-11.29,18.26-16.83
		c-26.11-28.96-61.05-44.05-94.64-59.02c-1.52,9.27-2.41,17.73-4.58,25.85c-0.56,2.09-5.13,3.1-7.86,4.61
		c-1.07-2.62-3.16-5.28-3.03-7.84c0.43-8.96,1.63-17.88,2.63-27.73c-5.51-0.95-10.38-1.79-14.6-2.53
		c-3.67,7.49-6.36,13.84-9.89,19.69c-1.21,2-4.53,2.74-6.88,4.05c-1.28-2.58-4.06-5.51-3.54-7.66c1.35-5.6,4.14-10.86,6.9-17.56
		c-6.69,0.29-13.32,0.58-20.07,0.88c-1.52,7.89-6.14,17.04-3.36,21.03c3.77,5.42,13.22,6.86,20.22,10.05
		c3.54,1.62,7.1,3.22,10.56,5.02c8.73,4.54,17.16,9.73,26.16,13.63c10.21,4.43,22.78,5.41,31,12.02
		c21.6,17.38,41.9,36.48,61.73,55.91c13.26,12.99,12.34,13.57,26.7,1.51c2.91-2.44,7.54-3.27,11.5-3.73
		c1.15-0.13,4.32,4.7,3.87,5.34c-2.05,2.89-4.73,5.71-7.81,7.42c-8.91,4.94-10.99,10.82-5.02,19.71c4.06,6.04,7.7,12.59,10.22,19.4
		c9.07,24.49,17.58,49.18,26.48,74.27C476.42,396.98,483.98,392.31,494.24,385.97z M504.97,461.82c-3.14,1.95-4.72,3.46-6.58,4.01
		c-6.3,1.84-12.7,3.33-19.07,4.95c4.34-5.05,8.61-10.18,13.06-15.14c4.27-4.76,12.52-9.46,12.4-14.01
		c-0.39-14.81-3.82-29.53-6.01-43.88c-11.21,5.86-20.43,10.67-28.94,15.12c2.12,34.22,4.25,68.52,6.38,102.96
		C501.47,506.27,504.71,500.35,504.97,461.82z M206.36,171.77c33.21,10.1,38.06,8.78,36.36-10.71
		c-41.09,11.73-85.7,11.26-118.94,40.58c0,7.23,0,13.45,0,21.23c6.25-3.68,11.95-7.04,17.65-10.4c-1.06-0.57-2.12-1.14-3.18-1.7
		c1.97-5.84,3.26-12.07,6.29-17.28c0.98-1.68,6.53-0.7,11.06-1.02c-2.44,6.7-3.94,10.84-6.66,18.31
		c11.63-8.48,24.68-10.59,22.24-26.27c-0.28-1.79,3.32-4.18,5.12-6.3c2.21,2.06,4.74,3.89,6.52,6.28c1.05,1.4,0.91,3.7,1.58,6.92
		C193.07,184.82,207.53,188.47,206.36,171.77z M81.18,253.87c7.73-7.49,19-18.42,30.28-29.35c1.06,0.9,2.13,1.79,3.19,2.69
		c-2.4-3.73-4.81-7.47-9.44-14.66C95.53,229.21,86.89,244.05,81.18,253.87z M475.06,524.64c-1.89,11.76-3.65,22.69-5.41,33.62
		c1.47,0.5,2.94,0.99,4.41,1.49c5.65-11.06,11.3-22.12,17.24-33.76C485.23,525.48,480.65,525.1,475.06,524.64z M449.16,590.06
		c1.6,1.12,3.19,2.25,4.79,3.37c5.01-7.13,10.01-14.25,15.02-21.38c-1.56-1.1-3.12-2.19-4.69-3.29
		C459.24,575.86,454.2,582.96,449.16,590.06z M418.54,617.18c9.7-3.97,22.17-4.54,24.03-18.27
		C434.56,605,426.55,611.09,418.54,617.18z"/>
	<path class="st0" d="M463.15,490.79c-1.75,20.61-0.76,39.33-5.37,56.55c-7.8,29.12-28.92,48.88-53.86,64.95
		c-32.1,20.69-68.09,28.11-105.05,28.07c-32.86-0.04-62.97-13.15-92.6-27.32c-37.73-18.04-63.2-47.37-86.79-80.81
		c-35.09-49.75-48.34-105.94-54.16-164.47c-5.07-50.95,11.12-95.06,53.31-126.16c16.84-12.41,36.76-20.68,55.41-30.57
		c9.51-5.04,19.22-9.73,29.03-14.16c23.32-10.53,45.82-5.73,67.5,4.93c10.02,4.93,18.91,12.18,28.96,17.05
		c6.39,3.1,14.06,3.45,21,5.56c22.87,6.96,38.61,24.11,55.2,39.76c13.48,12.71,27.8,25.16,38.41,40.1
		c11.3,15.9,20.94,33.83,27.16,52.28c7.39,21.93,11.35,45.19,14.97,68.16C459.82,447.29,461.1,470.25,463.15,490.79z M299.42,344.15
		c9.71-10.98,6.88-23.17-6.76-32.62c-35.45-24.56-84.24-21.45-115.4,7.5c-4.72,4.39-8.93,9.34-13.43,13.97
		c-16.2,16.63-19.53,60.86-5.93,79.59c1.01,1.38,2.09,2.78,3.39,3.87c21.82,18.32,53.53,19.68,75.29,1.02
		c23.27-19.96,51.05-27.37,79.85-31.34c8.99-1.24,20.02,3.4,28.38,8.31c17.16,10.07,25.69,27.93,33.28,45.28
		c14.99,34.25,4.6,58.16-30.18,72.86c-17.92,7.57-36.51,13.79-53.75,22.66c-32.23,16.59-59.15,6.87-82.19-16.31
		c-7.87-7.91-11.87-20.99-14.15-32.4c-0.77-3.85,9.41-9.68,14.17-14.98c1.67-1.86,3.61-5.82,2.78-7.06
		c-1.37-2.06-4.92-3.83-7.47-3.72c-9.57,0.39-24,17.99-22.99,27.33c5.12,47.49,60.58,80.99,104.99,63.12
		c24.85-10,49.96-19.6,73.97-31.38c19.14-9.39,35.89-27.67,33.56-53.52c-2.97-32.91-18.22-59-41.99-80.99
		c-18.4-17.03-39.1-14.1-60.91-8.91c-26.21,6.24-48.71,19.1-70.84,33.88c-26.51,17.7-56.57,2.86-59.53-28.22
		c-0.33-3.45-0.51-6.93-0.51-10.4c-0.01-18.52,24.32-54.68,42.17-59.24c22.52-5.75,45.62-6.69,67.63,3.29
		c9.7,4.4,20.14,8.43,21.16,21.82C294.19,339.83,297.48,341.89,299.42,344.15z"/>
	<path class="st0" d="M494.24,385.97c-10.26,6.33-17.82,11-24.19,14.93c-8.89-25.09-17.41-49.79-26.48-74.27
		c-2.52-6.81-6.16-13.36-10.22-19.4c-5.97-8.89-3.89-14.77,5.02-19.71c3.08-1.71,5.75-4.53,7.81-7.42c0.45-0.64-2.72-5.47-3.87-5.34
		c-3.97,0.46-8.6,1.29-11.5,3.73c-14.36,12.06-13.44,11.48-26.7-1.51c-19.83-19.43-40.13-38.53-61.73-55.91
		c-8.22-6.61-20.8-7.59-31-12.02c-8.99-3.91-17.43-9.1-26.16-13.63c-3.45-1.8-7.01-3.4-10.56-5.02c-7-3.19-16.45-4.64-20.22-10.05
		c-2.78-3.99,1.84-13.14,3.36-21.03c6.75-0.3,13.38-0.59,20.07-0.88c-2.75,6.7-5.55,11.96-6.9,17.56c-0.52,2.14,2.26,5.08,3.54,7.66
		c2.35-1.31,5.67-2.05,6.88-4.05c3.53-5.85,6.22-12.2,9.89-19.69c4.23,0.73,9.09,1.57,14.6,2.53c-1,9.86-2.2,18.78-2.63,27.73
		c-0.12,2.56,1.96,5.23,3.03,7.84c2.73-1.51,7.3-2.52,7.86-4.61c2.17-8.12,3.06-16.58,4.58-25.85
		c33.58,14.97,68.53,30.06,94.64,59.02c-6.16,5.53-12.69,10.74-18.26,16.83c-1.63,1.78-0.48,6.09-0.61,9.24
		c2.98-0.62,6.46-0.46,8.83-2c6.1-3.99,11.72-8.73,19.02-14.32c18.4,25.11,38.42,52.43,57.04,77.84
		c-9.89,8.15-17.48,13.84-24.24,20.4c-1.54,1.49-0.2,5.95-0.19,9.04c2.72-0.48,6.06-0.13,8.03-1.61c6.1-4.55,11.67-9.79,20.75-17.6
		C487.61,347.12,490.98,366.89,494.24,385.97z M352.76,221.39c1.47-0.1,2.94-0.2,4.4-0.3c3.54-5.24,8.11-10.11,10.22-15.87
		c1.24-3.4-1.41-8.23-2.32-12.41c-3.05,2.69-6.56,5.02-9.03,8.17c-2.32,2.95-4.37,6.63-4.98,10.25
		C350.5,214.43,352.1,217.99,352.76,221.39z"/>
	<path class="st0" d="M504.97,461.82c-0.26,38.52-3.5,44.45-28.76,54.01c-2.14-34.45-4.26-68.74-6.38-102.96
		c8.51-4.45,17.72-9.26,28.94-15.12c2.19,14.35,5.62,29.07,6.01,43.88c0.12,4.55-8.13,9.25-12.4,14.01
		c-4.45,4.96-8.71,10.09-13.06,15.14c6.36-1.62,12.77-3.12,19.07-4.95C500.25,465.29,501.83,463.78,504.97,461.82z"/>
	<path class="st0" d="M206.36,171.77c1.17,16.7-13.29,13.05-21.94,19.63c-0.67-3.23-0.53-5.52-1.58-6.92
		c-1.78-2.39-4.31-4.22-6.52-6.28c-1.8,2.11-5.4,4.51-5.12,6.3c2.44,15.68-10.6,17.79-22.24,26.27c2.72-7.47,4.22-11.61,6.66-18.31
		c-4.53,0.31-10.08-0.67-11.06,1.02c-3.03,5.22-4.33,11.45-6.29,17.28c1.06,0.57,2.12,1.14,3.18,1.7c-5.7,3.36-11.4,6.72-17.65,10.4
		c0-7.78,0-14,0-21.23c33.24-29.33,77.84-28.85,118.94-40.58C244.42,180.55,239.57,181.87,206.36,171.77z"/>
	<path class="st0" d="M81.18,253.87c5.72-9.83,14.35-24.67,24.03-41.32c4.63,7.19,7.03,10.92,9.44,14.66
		c-1.06-0.9-2.13-1.79-3.19-2.69C100.18,235.45,88.91,246.38,81.18,253.87z"/>
	<path class="st0" d="M475.06,524.64c5.59,0.46,10.17,0.84,16.25,1.35c-5.95,11.64-11.59,22.7-17.24,33.76
		c-1.47-0.5-2.94-0.99-4.41-1.49C471.41,547.33,473.17,536.4,475.06,524.64z"/>
	<path class="st0" d="M449.16,590.06c5.04-7.1,10.08-14.2,15.12-21.3c1.56,1.1,3.12,2.19,4.69,3.29
		c-5.01,7.13-10.01,14.25-15.02,21.38C452.36,592.31,450.76,591.18,449.16,590.06z"/>
	<path class="st0" d="M418.54,617.18c8.01-6.09,16.02-12.18,24.03-18.27C440.71,612.64,428.24,613.21,418.54,617.18z"/>
	<path d="M299.42,344.15c-1.93-2.26-5.22-4.32-5.4-6.61c-1.02-13.4-11.46-17.42-21.16-21.82c-22.01-9.98-45.11-9.04-67.63-3.29
		c-17.85,4.56-42.18,40.72-42.17,59.24c0,3.47,0.18,6.95,0.51,10.4c2.96,31.07,33.02,45.92,59.53,28.22
		c22.13-14.78,44.63-27.64,70.84-33.88c21.81-5.19,42.52-8.12,60.91,8.91c23.76,22,39.01,48.08,41.99,80.99
		c2.34,25.85-14.42,44.13-33.56,53.52c-24.01,11.78-49.12,21.38-73.97,31.38c-44.41,17.87-99.87-15.62-104.99-63.12
		c-1.01-9.33,13.42-26.94,22.99-27.33c2.55-0.1,6.11,1.66,7.47,3.72c0.83,1.24-1.11,5.2-2.78,7.06
		c-4.76,5.3-14.94,11.13-14.17,14.98c2.28,11.41,6.29,24.49,14.15,32.4c23.03,23.17,49.95,32.9,82.19,16.31
		c17.24-8.87,35.83-15.09,53.75-22.66c34.78-14.69,45.17-38.6,30.18-72.86c-7.59-17.34-16.11-35.21-33.28-45.28
		c-8.36-4.91-19.39-9.55-28.38-8.31c-28.8,3.97-56.59,11.39-79.85,31.34c-21.76,18.66-53.47,17.29-75.29-1.02
		c-1.3-1.09-2.39-2.48-3.39-3.87c-13.6-18.72-10.27-62.96,5.93-79.59c4.51-4.63,8.71-9.58,13.43-13.97
		c31.15-28.95,79.95-32.06,115.4-7.5C306.3,320.98,309.13,333.17,299.42,344.15z"/>
	<path d="M352.76,221.39c-0.65-3.4-2.26-6.96-1.71-10.16c0.61-3.62,2.67-7.29,4.98-10.25c2.47-3.15,5.98-5.48,9.03-8.17
		c0.9,4.19,3.56,9.01,2.32,12.41c-2.11,5.76-6.68,10.63-10.22,15.87C355.69,221.19,354.22,221.29,352.76,221.39z"/>
</g>
</svg>
