<?xml version="1.0" encoding="utf-8"?>
<!-- Generator: Adobe Illustrator 28.2.0, SVG Export Plug-In . SVG Version: 6.00 Build 0)  -->
<svg version="1.1" id="Capa_1" xmlns="http://www.w3.org/2000/svg" xmlns:xlink="http://www.w3.org/1999/xlink" x="0px" y="0px"
	 viewBox="0 0 595.28 841.89" style="enable-background:new 0 0 595.28 841.89;" xml:space="preserve">
<style type="text/css">
	.st0{fill:#FFE910;}
</style>
<g>
	<path d="M294.46,540.18c-10.45-0.43-20.67-3.2-29.9-8.1c-5.4-2.87-10.78-5.7-16.19-8.46c-11.65-5.93-20.75-14.87-27.85-25.44
		c-7.94-11.83-15.75-24.02-21.42-37.01c-4.94-11.31-7.28-23.86-9.9-36.05c-1.89-8.79-4.24-18.15-3.04-26.79
		c2.14-15.47,2.7-31.29,8.72-46.25c5.44-13.54,13.63-23.86,26.05-31.56c11.39-7.05,23.12-12.02,36.56-13.43
		c8.71-0.92,17.2-3.7,25.88-5.04c15.95-2.44,30.46,1.85,44.05,10.2c7.81,4.8,16.53,8.37,23.66,14c7.59,5.98,13.89,13.64,20.54,20.76
		c2.64,2.82,4.5,6.36,7.1,9.22c13.85,15.25,22.34,32.74,23.29,53.62c0.14,3.15,1.34,6.32,2.43,9.35c6.61,18.4,6.5,37.04-0.43,54.98
		c-5.65,14.61-13,28.64-20.45,42.46c-4.66,8.64-13.44,12.93-22.38,16.42c-3.73,1.46-7.38,3.1-11.07,4.66
		C340.51,541.39,312.56,540.93,294.46,540.18z M381.83,465.38c-0.97-9.74-1.58-20.63-3.26-31.34c-1.72-10.89-3.59-21.92-7.1-32.32
		c-2.95-8.75-7.52-17.25-12.88-24.79c-5.03-7.08-11.82-12.99-18.21-19.01c-7.87-7.42-15.33-15.55-26.18-18.85
		c-3.29-1-6.93-1.17-9.96-2.64c-4.76-2.31-8.98-5.75-13.73-8.09c-10.28-5.06-20.95-7.33-32.01-2.34c-4.65,2.1-9.26,4.33-13.76,6.72
		c-8.85,4.69-18.29,8.61-26.28,14.5c-20,14.75-27.68,35.67-25.28,59.83c2.76,27.75,9.04,54.4,25.68,77.99
		c11.19,15.86,23.27,29.76,41.15,38.32c14.05,6.72,28.33,12.94,43.91,12.96c17.53,0.02,34.59-3.5,49.81-13.31
		c11.83-7.62,21.84-16.99,25.54-30.8C381.47,484.03,381,475.15,381.83,465.38z M396.57,415.67c-1.54-9.05-3.14-18.42-4.98-29.2
		c-4.3,3.7-6.95,6.19-9.84,8.35c-0.94,0.7-2.52,0.53-3.81,0.76c-0.01-1.47-0.64-3.58,0.09-4.29c3.2-3.11,6.8-5.81,11.49-9.67
		c-8.83-12.05-18.32-25-27.05-36.91c-3.47,2.65-6.13,4.9-9.02,6.79c-1.12,0.73-2.77,0.66-4.19,0.95c0.06-1.49-0.48-3.54,0.29-4.38
		c2.64-2.89,5.74-5.36,8.66-7.98c-12.38-13.73-28.95-20.89-44.88-27.99c-0.72,4.4-1.14,8.41-2.17,12.26
		c-0.26,0.99-2.43,1.47-3.73,2.19c-0.51-1.24-1.5-2.51-1.44-3.72c0.21-4.25,0.77-8.48,1.25-13.15c-2.61-0.45-4.92-0.85-6.92-1.2
		c-1.74,3.55-3.02,6.56-4.69,9.34c-0.57,0.95-2.15,1.3-3.26,1.92c-0.61-1.22-1.92-2.61-1.68-3.63c0.64-2.66,1.96-5.15,3.27-8.33
		c-3.17,0.14-6.32,0.28-9.52,0.42c-0.72,3.74-2.91,8.08-1.59,9.97c1.79,2.57,6.27,3.25,9.59,4.77c1.68,0.77,3.37,1.53,5.01,2.38
		c4.14,2.15,8.14,4.61,12.4,6.47c4.84,2.1,10.8,2.56,14.7,5.7c10.24,8.24,19.87,17.3,29.27,26.51c6.29,6.16,5.85,6.43,12.66,0.72
		c1.38-1.16,3.57-1.55,5.46-1.77c0.54-0.06,2.05,2.23,1.84,2.53c-0.97,1.37-2.24,2.71-3.7,3.52c-4.22,2.34-5.21,5.13-2.38,9.35
		c1.92,2.87,3.65,5.97,4.85,9.2c4.3,11.61,8.34,23.32,12.56,35.22C388.12,420.89,391.71,418.68,396.57,415.67z M401.66,451.64
		c-1.49,0.93-2.24,1.64-3.12,1.9c-2.99,0.87-6.02,1.58-9.04,2.35c2.06-2.4,4.08-4.83,6.19-7.18c2.02-2.26,5.94-4.49,5.88-6.64
		c-0.19-7.02-1.81-14-2.85-20.81c-5.32,2.78-9.69,5.06-13.72,7.17c1.01,16.23,2.01,32.49,3.03,48.82
		C400,472.72,401.54,469.91,401.66,451.64z M260.06,314.1c15.75,4.79,18.05,4.17,17.24-5.08c-19.49,5.56-40.64,5.34-56.4,19.24
		c0,3.43,0,6.38,0,10.07c2.96-1.75,5.67-3.34,8.37-4.93c-0.5-0.27-1.01-0.54-1.51-0.81c0.93-2.77,1.55-5.72,2.98-8.2
		c0.46-0.8,3.1-0.33,5.25-0.48c-1.16,3.18-1.87,5.14-3.16,8.68c5.52-4.02,11.7-5.02,10.54-12.46c-0.13-0.85,1.57-1.98,2.43-2.99
		c1.05,0.98,2.25,1.85,3.09,2.98c0.5,0.67,0.43,1.75,0.75,3.28C253.76,320.29,260.62,322.02,260.06,314.1z M200.7,353.03
		c3.67-3.55,9.01-8.74,14.36-13.92c0.5,0.43,1.01,0.85,1.51,1.27c-1.14-1.77-2.28-3.54-4.47-6.95
		C207.51,341.33,203.41,348.37,200.7,353.03z M387.48,481.43c-0.9,5.58-1.73,10.76-2.57,15.94c0.7,0.24,1.4,0.47,2.09,0.71
		c2.68-5.24,5.36-10.49,8.18-16.01C392.3,481.83,390.13,481.65,387.48,481.43z M375.2,512.45c0.76,0.53,1.51,1.07,2.27,1.6
		c2.37-3.38,4.75-6.76,7.12-10.14c-0.74-0.52-1.48-1.04-2.22-1.56C379.98,505.71,377.59,509.08,375.2,512.45z M360.68,525.31
		c4.6-1.88,10.51-2.15,11.39-8.66C368.27,519.53,364.47,522.42,360.68,525.31z"/>
	<path class="st0" d="M381.83,465.38c-0.83,9.77-0.36,18.65-2.55,26.82c-3.7,13.81-13.71,23.18-25.54,30.8
		c-15.22,9.81-32.29,13.33-49.81,13.31c-15.58-0.02-29.86-6.24-43.91-12.96c-17.89-8.56-29.97-22.46-41.15-38.32
		c-16.64-23.59-22.92-50.23-25.68-77.99c-2.4-24.16,5.27-45.08,25.28-59.83c7.98-5.89,17.43-9.81,26.28-14.5
		c4.51-2.39,9.11-4.62,13.76-6.72c11.06-4.99,21.73-2.72,32.01,2.34c4.75,2.34,8.97,5.78,13.73,8.09c3.03,1.47,6.67,1.63,9.96,2.64
		c10.84,3.3,18.31,11.43,26.18,18.85c6.39,6.03,13.18,11.93,18.21,19.01c5.36,7.54,9.93,16.04,12.88,24.79
		c3.5,10.4,5.38,21.43,7.1,32.32C380.25,444.75,380.86,455.64,381.83,465.38z M304.19,395.84c4.61-5.21,3.26-10.99-3.2-15.47
		c-16.81-11.65-39.95-10.17-54.72,3.56c-2.24,2.08-4.23,4.43-6.37,6.62c-7.68,7.88-9.26,28.86-2.81,37.74
		c0.48,0.66,0.99,1.32,1.61,1.83c10.34,8.69,25.38,9.33,35.7,0.49c11.03-9.46,24.21-12.98,37.87-14.86
		c4.26-0.59,9.49,1.61,13.46,3.94c8.14,4.77,12.18,13.25,15.78,21.47c7.11,16.24,2.18,27.58-14.31,34.55
		c-8.5,3.59-17.31,6.54-25.49,10.74c-15.28,7.87-28.05,3.26-38.97-7.73c-3.73-3.75-5.63-9.95-6.71-15.36
		c-0.37-1.83,4.46-4.59,6.72-7.1c0.79-0.88,1.71-2.76,1.32-3.35c-0.65-0.98-2.33-1.81-3.54-1.76c-4.54,0.19-11.38,8.53-10.9,12.96
		c2.43,22.52,28.73,38.4,49.78,29.93c11.78-4.74,23.69-9.3,35.08-14.88c9.07-4.45,17.02-13.12,15.91-25.38
		c-1.41-15.61-8.64-27.98-19.91-38.41c-8.72-8.08-18.54-6.69-28.88-4.22c-12.43,2.96-23.1,9.06-33.59,16.07
		c-12.57,8.39-26.82,1.36-28.23-13.38c-0.16-1.64-0.24-3.29-0.24-4.93c0-8.78,11.53-25.93,20-28.09
		c10.68-2.73,21.63-3.17,32.07,1.56c4.6,2.09,9.55,4,10.03,10.35C301.71,393.79,303.27,394.77,304.19,395.84z"/>
	<path class="st0" d="M396.57,415.67c-4.87,3-8.45,5.22-11.47,7.08c-4.22-11.9-8.26-23.61-12.56-35.22c-1.2-3.23-2.92-6.33-4.85-9.2
		c-2.83-4.21-1.84-7,2.38-9.35c1.46-0.81,2.73-2.15,3.7-3.52c0.21-0.3-1.29-2.6-1.84-2.53c-1.88,0.22-4.08,0.61-5.46,1.77
		c-6.81,5.72-6.37,5.44-12.66-0.72c-9.4-9.21-19.03-18.27-29.27-26.51c-3.9-3.14-9.86-3.6-14.7-5.7c-4.27-1.85-8.26-4.31-12.4-6.47
		c-1.64-0.85-3.33-1.61-5.01-2.38c-3.32-1.51-7.8-2.2-9.59-4.77c-1.32-1.89,0.87-6.23,1.59-9.97c3.2-0.14,6.34-0.28,9.52-0.42
		c-1.31,3.18-2.63,5.67-3.27,8.33c-0.25,1.02,1.07,2.41,1.68,3.63c1.12-0.62,2.69-0.97,3.26-1.92c1.67-2.77,2.95-5.78,4.69-9.34
		c2,0.35,4.31,0.75,6.92,1.2c-0.47,4.67-1.04,8.9-1.25,13.15c-0.06,1.21,0.93,2.48,1.44,3.72c1.29-0.71,3.46-1.2,3.73-2.19
		c1.03-3.85,1.45-7.86,2.17-12.26c15.93,7.1,32.5,14.25,44.88,27.99c-2.92,2.62-6.02,5.09-8.66,7.98c-0.77,0.84-0.23,2.89-0.29,4.38
		c1.41-0.29,3.06-0.22,4.19-0.95c2.89-1.89,5.56-4.14,9.02-6.79c8.73,11.91,18.22,24.86,27.05,36.91
		c-4.69,3.86-8.29,6.56-11.49,9.67c-0.73,0.71-0.1,2.82-0.09,4.29c1.29-0.23,2.87-0.06,3.81-0.76c2.89-2.16,5.54-4.64,9.84-8.35
		C393.43,397.25,395.03,406.62,396.57,415.67z M329.48,337.63c0.7-0.05,1.39-0.09,2.09-0.14c1.68-2.49,3.84-4.79,4.85-7.53
		c0.59-1.61-0.67-3.9-1.1-5.89c-1.45,1.28-3.11,2.38-4.28,3.87c-1.1,1.4-2.07,3.14-2.36,4.86
		C328.41,334.33,329.17,336.02,329.48,337.63z"/>
	<path class="st0" d="M401.66,451.64c-0.12,18.27-1.66,21.08-13.64,25.61c-1.01-16.34-2.02-32.6-3.03-48.82
		c4.04-2.11,8.4-4.39,13.72-7.17c1.04,6.8,2.66,13.79,2.85,20.81c0.06,2.16-3.86,4.39-5.88,6.64c-2.11,2.35-4.13,4.78-6.19,7.18
		c3.02-0.77,6.05-1.48,9.04-2.35C399.42,453.28,400.17,452.57,401.66,451.64z"/>
	<path class="st0" d="M260.06,314.1c0.56,7.92-6.3,6.19-10.41,9.31c-0.32-1.53-0.25-2.62-0.75-3.28c-0.84-1.13-2.04-2-3.09-2.98
		c-0.85,1-2.56,2.14-2.43,2.99c1.16,7.43-5.03,8.44-10.54,12.46c1.29-3.54,2-5.5,3.16-8.68c-2.15,0.15-4.78-0.32-5.25,0.48
		c-1.44,2.47-2.05,5.43-2.98,8.2c0.5,0.27,1.01,0.54,1.51,0.81c-2.7,1.59-5.41,3.19-8.37,4.93c0-3.69,0-6.64,0-10.07
		c15.76-13.91,36.91-13.68,56.4-19.24C278.11,318.26,275.81,318.89,260.06,314.1z"/>
	<path class="st0" d="M200.7,353.03c2.71-4.66,6.8-11.7,11.4-19.59c2.19,3.41,3.33,5.18,4.47,6.95c-0.5-0.42-1.01-0.85-1.51-1.27
		C209.71,344.3,204.37,349.48,200.7,353.03z"/>
	<path class="st0" d="M387.48,481.43c2.65,0.22,4.82,0.4,7.7,0.64c-2.82,5.52-5.5,10.77-8.18,16.01c-0.7-0.24-1.4-0.47-2.09-0.71
		C385.75,492.19,386.58,487,387.48,481.43z"/>
	<path class="st0" d="M375.2,512.45c2.39-3.37,4.78-6.73,7.17-10.1c0.74,0.52,1.48,1.04,2.22,1.56c-2.37,3.38-4.75,6.76-7.12,10.14
		C376.71,513.51,375.95,512.98,375.2,512.45z"/>
	<path class="st0" d="M360.68,525.31c3.8-2.89,7.6-5.78,11.39-8.66C371.19,523.16,365.27,523.43,360.68,525.31z"/>
	<path d="M304.19,395.84c-0.92-1.07-2.48-2.05-2.56-3.13c-0.48-6.35-5.43-8.26-10.03-10.35c-10.44-4.73-21.39-4.29-32.07-1.56
		c-8.47,2.16-20,19.31-20,28.09c0,1.64,0.09,3.3,0.24,4.93c1.4,14.74,15.66,21.77,28.23,13.38c10.49-7.01,21.16-13.11,33.59-16.07
		c10.34-2.46,20.16-3.85,28.88,4.22c11.27,10.43,18.5,22.8,19.91,38.41c1.11,12.26-6.84,20.93-15.91,25.38
		c-11.39,5.59-23.29,10.14-35.08,14.88c-21.06,8.48-47.36-7.41-49.78-29.93c-0.48-4.43,6.37-12.77,10.9-12.96
		c1.21-0.05,2.89,0.79,3.54,1.76c0.39,0.59-0.53,2.47-1.32,3.35c-2.26,2.51-7.09,5.28-6.72,7.1c1.08,5.41,2.98,11.61,6.71,15.36
		c10.92,10.99,23.69,15.6,38.97,7.73c8.17-4.21,16.99-7.16,25.49-10.74c16.49-6.97,21.42-18.31,14.31-34.55
		c-3.6-8.22-7.64-16.7-15.78-21.47c-3.97-2.33-9.19-4.53-13.46-3.94c-13.66,1.88-26.83,5.4-37.87,14.86
		c-10.32,8.85-25.36,8.2-35.7-0.49c-0.62-0.52-1.13-1.18-1.61-1.83c-6.45-8.88-4.87-29.86,2.81-37.74c2.14-2.19,4.13-4.54,6.37-6.62
		c14.77-13.73,37.91-15.2,54.72-3.56C307.45,384.85,308.79,390.63,304.19,395.84z"/>
	<path d="M329.48,337.63c-0.31-1.61-1.07-3.3-0.81-4.82c0.29-1.72,1.27-3.46,2.36-4.86c1.17-1.49,2.83-2.6,4.28-3.87
		c0.43,1.98,1.69,4.27,1.1,5.89c-1,2.73-3.17,5.04-4.85,7.53C330.87,337.54,330.18,337.58,329.48,337.63z"/>
</g>
</svg>
